<svg xmlns="http://www.w3.org/2000/svg" width="187.5" height="150" viewBox="0 0 187.5 150">
  <path id="door-open" d="M182.813,131.251H159.375V33.238a14.3,14.3,0,0,0-14.063-14.487H112.5V37.5h28.125V150h42.188a4.686,4.686,0,0,0,4.688-4.688v-9.375A4.686,4.686,0,0,0,182.813,131.251ZM91.477.3,35.227,14.869a9.654,9.654,0,0,0-7.1,9.425V131.251H4.688A4.686,4.686,0,0,0,0,135.938v9.375A4.686,4.686,0,0,0,4.688,150h98.438V9.721A9.455,9.455,0,0,0,91.477.3ZM77.344,84.376c-3.882,0-7.031-4.2-7.031-9.375s3.149-9.375,7.031-9.375,7.031,4.2,7.031,9.375S81.226,84.376,77.344,84.376Z" transform="translate(0 -0.001)" fill="#022840"/>
</svg>
