<svg xmlns="http://www.w3.org/2000/svg" width="150.013" height="150" viewBox="0 0 150.013 150">
  <path id="paper-plane" d="M128.938,1.922,7.062,72.206a14.062,14.062,0,0,0,1.67,25.166L42.219,111.23v24.727c0,13.594,17.344,19.19,25.371,8.379l12.832-17.315,32.784,13.535a14.093,14.093,0,0,0,19.278-10.869l17.4-113.439A14.09,14.09,0,0,0,128.938,1.922ZM56.281,135.956V117.03L67,121.454Zm62.286-8.408-45.059-18.6,41.075-59.268c3.135-4.541-2.783-9.815-6.943-6.211L45.676,97.46,14.093,84.393,135.97,14.08Z" transform="translate(-0.043 -0.025)" fill="#022840"/>
</svg>
