<svg xmlns="http://www.w3.org/2000/svg" width="120" height="120" viewBox="0 0 120 120">
  <path id="phone" d="M115.63,5.757,91.256.132A5.661,5.661,0,0,0,84.811,3.39L73.561,29.64A5.611,5.611,0,0,0,75.178,36.2l14.2,11.625a86.86,86.86,0,0,1-41.53,41.53l-11.625-14.2a5.619,5.619,0,0,0-6.562-1.617L3.414,84.787A5.692,5.692,0,0,0,.133,91.255L5.758,115.63a5.623,5.623,0,0,0,5.484,4.359A108.736,108.736,0,0,0,119.989,11.241,5.618,5.618,0,0,0,115.63,5.757Z" transform="translate(0.011 0.011)" fill="#022840"/>
</svg>
