<svg xmlns="http://www.w3.org/2000/svg" width="42.5" height="40" viewBox="0 0 42.5 40">
  <path id="hand-holding-usd" d="M20.125,11.273l3.906,1.117a.657.657,0,0,1-.18,1.289H21.289a2.01,2.01,0,0,1-.8-.172.969.969,0,0,0-1.1.156l-1.367,1.367a.937.937,0,0,0,.117,1.437,5.709,5.709,0,0,0,2.484.9V18.75A1.254,1.254,0,0,0,21.867,20h1.25a1.254,1.254,0,0,0,1.25-1.25V17.375a4.4,4.4,0,0,0,3.852-4.922,4.584,4.584,0,0,0-3.352-3.727L20.961,7.609a.657.657,0,0,1,.18-1.289H23.7a2.01,2.01,0,0,1,.8.172.969.969,0,0,0,1.1-.156l1.367-1.367a.937.937,0,0,0-.117-1.437,5.709,5.709,0,0,0-2.484-.9V1.25A1.254,1.254,0,0,0,23.125,0h-1.25a1.254,1.254,0,0,0-1.25,1.25V2.625a4.4,4.4,0,0,0-3.852,4.922A4.584,4.584,0,0,0,20.125,11.273ZM41.711,25.633a2.346,2.346,0,0,0-3.148,0L31.75,31.406A4.544,4.544,0,0,1,28.8,32.5H20.07a1.252,1.252,0,0,1,0-2.5h5.773a2.5,2.5,0,0,0,.125-5h-11.8A8.353,8.353,0,0,0,8.7,27.055L5.273,30H1.18A1.22,1.22,0,0,0,0,31.25v7.5A1.22,1.22,0,0,0,1.18,40H27.5a4.575,4.575,0,0,0,2.953-1.094l11.156-9.453a2.6,2.6,0,0,0,.1-3.82Z" fill="#022840"/>
</svg>
