<svg xmlns="http://www.w3.org/2000/svg" width="99.996" height="100" viewBox="0 0 99.996 100">
  <path id="tools-solid" d="M97.821,77.278,74.952,54.409a14.5,14.5,0,0,0-16.678-2.715L37.456,30.876V18.748L12.459,0-.04,12.5l18.748,25H30.836L51.654,58.315a14.532,14.532,0,0,0,2.715,16.678L77.237,97.862a7.261,7.261,0,0,0,10.292,0L97.821,87.57A7.3,7.3,0,0,0,97.821,77.278ZM64.739,43.941A20.547,20.547,0,0,1,79.366,50l3.789,3.789a27.644,27.644,0,0,0,8.554-5.761,28.086,28.086,0,0,0,7.4-26.7,2.338,2.338,0,0,0-3.925-1.074l-14.53,14.53-13.26-2.207-2.207-13.26,14.53-14.53A2.358,2.358,0,0,0,78.6.84a28.132,28.132,0,0,0-26.677,7.4,27.675,27.675,0,0,0-8.046,20.232L59.915,44.507A21.275,21.275,0,0,1,64.739,43.941ZM44.448,59.955,33.374,48.882,3.612,78.664A12.5,12.5,0,0,0,21.286,96.338L45.424,72.2a20.972,20.972,0,0,1-.976-12.245ZM12.459,92.178a4.687,4.687,0,1,1,4.687-4.687A4.7,4.7,0,0,1,12.459,92.178Z" transform="translate(0.05)" fill="#022840"/>
</svg>
