<?xml version="1.0" encoding="UTF-8"?>
<svg width="54px" height="35px" viewBox="0 0 54 35" version="1.1" xmlns="http://www.w3.org/2000/svg" xmlns:xlink="http://www.w3.org/1999/xlink">
    <!-- Generator: Sketch 56.2 (81672) - https://sketch.com -->
    <title>Group</title>
    <desc>Created with Sketch.</desc>
    <g id="Page-1" stroke="none" stroke-width="1" fill="none" fill-rule="evenodd">
        <g id="Group">
            <rect id="Rectangle" fill="#FFFFFF" x="0" y="0" width="54" height="35"></rect>
            <g id="visa-pay-logo" transform="translate(4.000000, 10.000000)" fill-rule="nonzero">
                <polygon id="Path" fill="#1A1F71" points="18.3075463 0.666666667 16 14.6666667 19.6905553 14.6666667 22 0.666666667"></polygon>
                <path d="M13.0968729,0.669614863 L9.48844668,10.2306144 L9.10372476,8.78698114 C8.39208397,7.04754551 6.3718201,4.54944078 4,2.97510412 L7.29951163,14.6666667 L11.1979007,14.6597875 L17,0.666666667 L13.0968729,0.669614863 Z" id="Path" fill="#1A1F71"></path>
                <path d="M7.70097985,1.75405442 C7.47704503,0.938748157 6.82803039,0.69575124 6.02245954,0.666666667 L0.0495431025,0.666666667 L0,0.933118885 C4.64813388,2.00080418 7.72376968,4.57338158 9,7.66666667 L7.70097985,1.75405442 Z" id="Path" fill="#F7B600"></path>
                <path d="M29.429502,3.49994341 C30.628782,3.48092813 31.4980715,3.74524052 32.1731379,4.01906055 L32.5040713,4.17593662 L33,1.23617431 C32.2740207,0.961403509 31.1360247,0.666666667 29.7161224,0.666666667 C26.0937687,0.666666667 23.5405846,2.50639502 23.5207851,5.14286361 C23.4972144,7.09097906 25.3395046,8.17865308 26.731122,8.8280249 C28.1595097,9.49355971 28.6384675,9.91664969 28.6318677,10.5108772 C28.6205537,11.4188568 27.4929288,11.8352915 26.4397874,11.8352915 C24.9718008,11.8352915 24.1920802,11.6308772 22.9880861,11.1250707 L22.5157281,10.9082965 L22,13.944086 C22.8579755,14.3234409 24.4409874,14.6495529 26.0843404,14.6666667 C29.9376875,14.6666667 32.4418445,12.8488059 32.4682438,10.0316921 C32.4842719,8.49050368 31.506557,7.3144086 29.3880175,6.34938314 C28.1057684,5.71997736 27.3213337,5.3016412 27.3288763,4.66653084 C27.3288763,4.10272779 27.9945144,3.49994341 29.429502,3.49994341 Z" id="Path" fill="#1A1F71"></path>
                <path d="M43.0703438,0.666666667 L40.2729226,0.666666667 C39.4040831,0.666666667 38.757808,0.91607051 38.3760029,1.82924206 L33,14.6666667 L36.8022206,14.6666667 C36.8022206,14.6666667 37.4224212,12.9404779 37.5630372,12.5624445 C37.979298,12.5624445 41.6734957,12.5683359 42.1996418,12.5683359 C42.3076648,13.0573245 42.6410458,14.6666667 42.6410458,14.6666667 L46,14.6666667 L43.0703438,0.666666667 Z M38.605086,9.69528218 C38.9030802,8.89110207 40.0475645,5.78042736 40.0475645,5.78042736 C40.0280086,5.81872165 40.342765,4.97035582 40.5299427,4.44307289 L40.7739255,5.65081592 C40.7739255,5.65081592 41.4676934,8.99518399 41.6129656,9.69528218 L38.605086,9.69528218 Z" id="Shape" fill="#1A1F71"></path>
            </g>
            <rect id="Rectangle" fill="#F7B600" x="0" y="31" width="54" height="4"></rect>
            <rect id="Rectangle-Copy-2" fill="#1A1F71" x="0" y="0" width="54" height="4"></rect>
        </g>
    </g>
</svg>