<svg xmlns="http://www.w3.org/2000/svg" width="49.215" height="29.529" viewBox="0 0 49.215 29.529">
  <path id="backspace" d="M44.288,64H15.779A4.92,4.92,0,0,0,12.3,65.443L.716,77.024a2.46,2.46,0,0,0,0,3.48L12.3,92.087a4.922,4.922,0,0,0,3.48,1.442h28.51a4.921,4.921,0,0,0,4.921-4.921V68.921A4.921,4.921,0,0,0,44.288,64ZM37.776,83.537a1.23,1.23,0,0,1,0,1.74l-1.739,1.739a1.23,1.23,0,0,1-1.74,0l-4.772-4.772-4.772,4.772a1.23,1.23,0,0,1-1.74,0l-1.739-1.739a1.23,1.23,0,0,1,0-1.74l4.772-4.772-4.772-4.772a1.23,1.23,0,0,1,0-1.74l1.739-1.739a1.23,1.23,0,0,1,1.74,0l4.772,4.772L34.3,70.512a1.23,1.23,0,0,1,1.74,0l1.739,1.739a1.23,1.23,0,0,1,0,1.74L33,78.764Z" transform="translate(0.005 -64)" fill="#022840"/>
</svg>
