<?xml version="1.0" encoding="UTF-8"?>
<svg width="54px" height="35px" viewBox="0 0 54 35" version="1.1" xmlns="http://www.w3.org/2000/svg" xmlns:xlink="http://www.w3.org/1999/xlink">
    <!-- Generator: Sketch 56.2 (81672) - https://sketch.com -->
    <title>bank-axept</title>
    <desc>Created with Sketch.</desc>
    <g id="Page-1" stroke="none" stroke-width="1" fill="none" fill-rule="evenodd">
        <g id="bank-axept">
            <g id="Rectangle">
                <g id="Mask">
                    <rect id="path-1" fill="#71116B" fill-rule="nonzero" x="0" y="0" width="54" height="35"></rect>
                    <polygon id="Path-2" fill="#02848A" points="0 0 33 0 11.303937 35 0 35"></polygon>
                </g>
            </g>
            <g id="logo-white" transform="translate(4.000000, 5.000000)">
                <path d="M2.67041404,8 C1.88117624,8 1.32238155,7.85034393 1.01074605,7.64863358 L1,1.00390407 L2.32415237,1 L2.32415237,3.27997769 C2.58992511,3.15012209 2.87967519,3.08909987 3.17070244,3.10169176 C4.24530761,3.10169176 4.99753123,3.99442276 4.99991925,5.39468303 C5.00947129,7.05651608 4.17127926,7.99219186 2.67041404,8 Z M2.80175467,3.88510876 C2.63682911,3.87599045 2.47248322,3.91271046 2.32415237,3.99182004 L2.33131641,7.09946087 C2.46178417,7.14863727 2.59926769,7.17199537 2.73727836,7.16843279 C3.40711558,7.16843279 3.69248295,6.5489868 3.69248295,5.48577803 C3.69725898,4.56051311 3.50860607,3.88250604 2.80175467,3.88510876 Z" id="Shape" fill="#FFFFFF" fill-rule="nonzero"></path>
                <path d="M8.11401575,8 C6.71685039,8.00392293 6.00251969,7.48806874 6,6.48413714 C6,5.24079628 7.23968504,4.87043943 8.68850394,4.73155561 L8.68850394,4.5080188 C8.68850394,4.00671435 8.34582677,3.86518512 7.83685039,3.86650782 C7.40484432,3.8794188 6.97942089,3.98097105 6.58456693,4.16543871 L6.2784252,3.37181689 C6.85511498,3.12630057 7.47155919,3.00009393 8.09385827,3.00013733 C9.18488189,2.99087841 9.99244094,3.44853366 9.99244094,4.75536427 L10,7.63621148 C9.59937008,7.85181208 8.94677165,7.99730941 8.11401575,8 Z M8.68976378,5.37174388 C7.84818898,5.45507417 7.30393701,5.65347963 7.30393701,6.42197009 C7.30393701,6.98544159 7.62771654,7.22617354 8.18582677,7.22485084 C8.35867217,7.22894979 8.53039489,7.19469452 8.68976378,7.12432541 L8.68976378,5.37174388 Z" id="Shape" fill="#FFFFFF" fill-rule="nonzero"></path>
                <path d="M13.6392386,7.9932669 L13.6306417,4.55938594 C13.6306417,4.21330461 13.4808106,3.87664961 12.9318391,3.87799623 C12.7358735,3.87509467 12.5409504,3.909729 12.3558489,3.98033935 L12.3656739,7.99596014 L11,8 L11,3.3635874 C11.4642309,3.14408834 12.1274179,3 12.9649985,3 C14.4559411,3 14.9914031,3.65849717 14.9926313,4.55130622 L15,7.98249394 L13.6392386,7.9932669 Z" id="Path" fill="#FFFFFF" fill-rule="nonzero"></path>
                <polygon id="Path" fill="#FFFFFF" fill-rule="nonzero" points="19.1480423 7.97764838 17.6076022 5.55841473 17.5875965 5.55841473 17.5875965 7.97764838 16.0157188 7.97764838 16 1 17.5718777 1 17.5847385 5.30465815 17.6047442 5.30465815 19.1308945 3.1838843 20.7142041 3.1838843 18.9994284 5.34015778 21 8"></polygon>
                <path d="M0.517597212,12.8627698 L2.41020116,10.1125106 C3.03073758,10.0404655 3.65519528,10.0028977 4.28036839,10 C6.34454731,10 7.50597791,10.4000377 8.08933283,11.293872 C8.41268566,11.8026699 8.45755912,12.0676949 8.46151854,13.3903196 L8.472077,17.3219401 C8.472077,18.6458149 8.56182391,19.0533533 9,19.7446685 L5.41012361,19.7534193 L5.41012361,19.1421117 L4.71590486,19.7084151 C4.2392033,19.9193347 3.71587743,20.0183875 3.19020739,19.9971923 C1.23293288,19.9971923 0.0041920953,19.007099 0.00023267281,17.3994475 C-0.00843661514,16.752792 0.225402787,16.1241977 0.660136422,15.6255302 C1.08907386,15.1567361 1.68958627,14.8292052 2.84969706,14.4179164 L5.38240765,13.5603356 C5.38240765,12.196457 5.05377558,11.8101706 3.89366479,11.8101706 C3.08726241,11.8151711 1.96014681,12.1589535 0.517597212,12.8627698 Z M5.43651976,15.4055095 L3.6310231,15.4055095 C3.13741509,15.793046 2.97111935,16.1393287 2.97111935,16.6906306 C2.97111935,17.4844555 3.51224042,17.9920033 4.35031819,17.9895031 C4.75958706,18.0020241 5.156089,17.8536078 5.44575841,17.5794644 L5.43651976,15.4055095 Z" id="Shape" fill="#FFFFFF" fill-rule="nonzero"></path>
                <path d="M20,19.9737222 C19.4234166,19.5256865 19.0928589,19.1196952 18.5780974,18.2223098 L16.5909664,14.8508737 L16.5909664,14.8508737 L19.6189755,10 L16.3121373,10.0091972 C16.3566406,10.1328906 16.3842463,10.2624786 16.3941458,10.3941663 C16.3941458,10.5873078 16.2919505,10.8224938 16.1077467,11.1443963 L15.2573808,12.6014978 L14.4095382,11.1049796 C14.1572041,10.6989883 14.0802422,10.4638024 14.0789806,10.2496387 C14.0757853,10.1691137 14.0895661,10.0888372 14.119354,10.0144528 L10.0693919,10.0249639 C10.7077971,10.5373801 10.8263941,10.7081855 11.4723694,11.7553541 L13.4203886,14.9599264 L11.4963412,18.0698988 C10.8655059,19.0776508 10.6131718,19.3995533 10,20 L13.3737068,19.9908028 L14.8877113,17.5679937 L14.8877113,17.5679937 L15.6371436,18.8503482 C15.8894777,19.2996978 15.987888,19.5559059 15.9891496,19.7267113 C15.9921746,19.8148215 15.9854006,19.9030002 15.9689629,19.9894889 L20,19.9737222 Z" id="Path" fill="#FFFFFF" fill-rule="nonzero"></path>
                <path d="M24.8941406,19.998534 C21.8182086,20.0060328 20.0089108,18.2800451 20.0000973,15.2680029 C19.9837292,12.1734732 22.0347703,10.0100519 24.9885716,9.99999997 C27.6137531,9.9925546 28.9924455,11.5573168 29,14.5706089 C29,14.7955747 29,15.1217751 28.9823729,15.5704569 L23.1314288,15.5867045 C23.4033901,17.1327195 24.2457145,17.8638584 25.7440195,17.860109 C26.682034,17.860109 27.5608717,17.610147 28.9043099,16.9639951 L27.0950122,19.722326 C26.3787903,19.919982 25.6373836,20.0130281 24.8941406,19.998534 Z M23.1125426,13.569511 L26.0461987,13.5620121 C26.0461987,12.4371831 25.5085716,11.7922811 24.647361,11.7935273 C23.7861504,11.7947807 23.2573368,12.430934 23.1100245,13.5707608 L23.1125426,13.569511 Z" id="Shape" fill="#FFFFFF" fill-rule="nonzero"></path>
                <path d="M30.5474076,25 L30.5110931,11.7642619 C30.5110931,10.4100463 30.4182893,10.0088452 30,9.29083827 L33.6314508,9.28174957 L33.6314508,10.1906192 L34.6643968,9.34147529 C35.2763636,9.06491926 35.5614997,9.00129839 36.0873876,9 C38.3657867,9 39.9878348,10.8943439 40,13.5599286 C40.0093545,16.9032703 37.8237591,19.1300008 34.5581433,19.1429847 L33.6596954,19.1429847 L33.6596954,20.3777489 L32.4061724,22.2357381 L30.5474076,25 Z M33.6596954,17.087641 C33.9925708,17.223615 34.3500277,17.2946594 34.7114712,17.296681 C36.0699028,17.296681 36.7908131,16.2333036 36.7854926,14.1805567 C36.7854926,12.2550515 36.1425318,11.2410127 34.9145635,11.2448856 C34.4976191,11.2448856 34.1264041,11.3747464 33.6449006,11.6500041 L33.6596954,17.087641 Z" id="Shape" fill="#FFFFFF" fill-rule="nonzero"></path>
                <path d="M45.0350663,11.6130981 L46.2257502,9.60425906 L46.2257502,9.60425906 L43.9567341,9.60425906 L43.9457432,5 L40,11.6492572 L41.117411,11.6492572 L41.1296232,16.6043935 C41.1296232,17.9570118 41.2737264,18.5462712 41.7524424,19.1114246 C42.2311584,19.7207724 42.9883112,20.0033491 43.9433008,19.9993314 C44.4597255,20.0087755 44.9736115,19.9181005 45.4612701,19.7314862 L46.9914515,17.1534761 L47,17.134727 C46.14515,17.7052373 45.7091766,17.8806759 45.1681786,17.8820151 C44.3731682,17.8820151 43.9738311,17.4266782 43.9909281,16.4664532 L43.978716,11.6224727 L45.0350663,11.6130981 Z" id="Path" fill="#FFFFFF" fill-rule="nonzero"></path>
                <rect id="Rectangle" x="0" y="0" width="48" height="26"></rect>
            </g>
        </g>
    </g>
</svg>