<svg xmlns="http://www.w3.org/2000/svg" width="40" height="40" viewBox="0 0 40 40"><path d="M37.252,18.1a13.552,13.552,0,0,0-22.392,6.578.97.97,0,0,1-.94.738H9.3a.967.967,0,0,1-.952-1.143A20,20,0,0,1,41.816,13.539l2.88-2.88A1.935,1.935,0,0,1,48,12.028V22.839a1.935,1.935,0,0,1-1.935,1.935H35.253a1.936,1.936,0,0,1-1.369-3.3ZM9.935,31.226H20.747a1.936,1.936,0,0,1,1.369,3.3L18.748,37.9a13.552,13.552,0,0,0,22.392-6.578.97.97,0,0,1,.94-.738H46.7a.967.967,0,0,1,.952,1.143A20,20,0,0,1,14.184,42.461l-2.88,2.88A1.935,1.935,0,0,1,8,43.972V33.161A1.935,1.935,0,0,1,9.935,31.226Z" transform="translate(-8 -8)" fill="#022840"/></svg>