<svg xmlns="http://www.w3.org/2000/svg" width="192.854" height="147.564" viewBox="0 0 192.854 147.564">
  <g id="insert_card" data-name="insert card" transform="translate(-0.003 -0.006)">
    <path id="Path_19" data-name="Path 19" d="M217.11,120.23h-24.4c-7.99,0-11.39-3.38-11.43-11.59,0-5.33-.06-10.66,0-16,.09-7.22,3.45-10.65,10.76-10.73,10.5-.1,21,0,31.48,0h137.4c10.05,0,13.11,3,13.13,13.08,0,5,.13,10,0,15-.23,6.87-3.81,10.31-10.71,10.37-8.48.07-17,0-25.9,0,4.2,16.56,8.33,32.78,12.42,49,2.31,9.18,4.87,18.31,6.78,27.58,3.95,19.15-6.44,32.17-26.11,32.3q-52.71.38-105.42,0c-20.11-.14-30.74-14.1-26.1-33.74,5.5-23.28,11.23-46.51,16.86-69.76C216.23,124.12,216.59,122.5,217.11,120.23Z" transform="translate(-181.25 -81.86)" fill="#022840"/>
    <path id="Path_20" data-name="Path 20" d="M277.56,213.34H226.12c-11.17-.24-14.48-4.28-11.84-15.1,7.62-31.12,15.44-62.2,23-93.33.65-2.66,1.76-3.41,4.38-3.4q35.7.14,71.42,0c2.65,0,3.71.81,4.35,3.44,7.73,31.77,15.63,63.51,23.42,95.28,2.1,8.58-1.11,12.94-9.89,13-17.81.16-35.63,0-53.44,0Z" transform="translate(-181.25 -81.86)" fill="rgba(254,254,254,0.9)"/>
    <path id="Path_21" data-name="Path 21" d="M294.15,137.1c-4.16,0-8.32.1-12.48,0-3.45-.11-5.14-1.94-4.68-5.51q1.26-9.65,2.49-19.28c.38-3,2-4.4,5-4.39H304c2.7,0,4.39,1.14,4.77,4,.87,6.59,1.83,13.17,2.67,19.76.49,3.9-1.63,5.46-5.28,5.46Z" transform="translate(-198.25 -79.86)" fill="#022840"/>
  </g>
</svg>
