<svg xmlns="http://www.w3.org/2000/svg" width="30" height="40" viewBox="0 0 30 40">
  <path id="clipboard-list-solid" d="M26.25,5H20A5,5,0,0,0,10,5H3.75A3.751,3.751,0,0,0,0,8.75v27.5A3.751,3.751,0,0,0,3.75,40h22.5A3.751,3.751,0,0,0,30,36.25V8.75A3.751,3.751,0,0,0,26.25,5ZM7.5,33.125A1.875,1.875,0,1,1,9.375,31.25,1.871,1.871,0,0,1,7.5,33.125Zm0-7.5A1.875,1.875,0,1,1,9.375,23.75,1.871,1.871,0,0,1,7.5,25.625Zm0-7.5A1.875,1.875,0,1,1,9.375,16.25,1.871,1.871,0,0,1,7.5,18.125Zm7.5-15A1.875,1.875,0,1,1,13.125,5,1.871,1.871,0,0,1,15,3.125Zm10,28.75a.627.627,0,0,1-.625.625H13.125a.627.627,0,0,1-.625-.625v-1.25A.627.627,0,0,1,13.125,30h11.25a.627.627,0,0,1,.625.625Zm0-7.5a.627.627,0,0,1-.625.625H13.125a.627.627,0,0,1-.625-.625v-1.25a.627.627,0,0,1,.625-.625h11.25a.627.627,0,0,1,.625.625Zm0-7.5a.627.627,0,0,1-.625.625H13.125a.627.627,0,0,1-.625-.625v-1.25A.627.627,0,0,1,13.125,15h11.25a.627.627,0,0,1,.625.625Z" fill="#022840"/>
</svg>
