<svg xmlns="http://www.w3.org/2000/svg" width="80" height="40" viewBox="0 0 80 40">
  <path id="language" d="M38,136H3a3,3,0,0,1-3-3V99a3,3,0,0,1,3-3H38Zm-15.084-9.078A1.5,1.5,0,0,0,24.355,128h2.858a1.5,1.5,0,0,0,1.42-1.983l-7.182-21.132a1.5,1.5,0,0,0-1.42-1.017H15.97a1.5,1.5,0,0,0-1.42,1.017L7.368,126.017A1.5,1.5,0,0,0,8.788,128h2.851a1.5,1.5,0,0,0,1.442-1.087l1.14-3.976h7.526l1.169,3.985ZM18.034,109.37s.54,2.633.979,4.151l1.35,4.691H15.6l1.384-4.691c.439-1.519.979-4.151.979-4.151ZM77,136H42V96H77a3,3,0,0,1,3,3v34A3,3,0,0,1,77,136Zm-4.5-28.5h-8v-2A1.5,1.5,0,0,0,63,104H61a1.5,1.5,0,0,0-1.5,1.5v2h-8A1.5,1.5,0,0,0,50,109v2a1.5,1.5,0,0,0,1.5,1.5H65.763a19.35,19.35,0,0,1-3.753,5.4,23.632,23.632,0,0,1-2.171-2.617,1.5,1.5,0,0,0-2-.431l-.91.543-.812.485a1.5,1.5,0,0,0-.467,2.14,28.281,28.281,0,0,0,2.623,3.216,39.371,39.371,0,0,1-3.263,2.245,1.5,1.5,0,0,0-.52,2.024l.993,1.737a1.5,1.5,0,0,0,2.088.535A43.611,43.611,0,0,0,62,124.666a43.644,43.644,0,0,0,4.425,3.11,1.5,1.5,0,0,0,2.09-.534l.993-1.738a1.5,1.5,0,0,0-.517-2.021,39.094,39.094,0,0,1-3.257-2.252,22.383,22.383,0,0,0,5.339-8.731H72.5A1.5,1.5,0,0,0,74,111v-2A1.5,1.5,0,0,0,72.5,107.5Z" transform="translate(0 -96)" fill="#022840"/>
</svg>
