<svg xmlns="http://www.w3.org/2000/svg" width="40" height="40" viewBox="0 0 40 40"><path d="M23.75,3.75A3.75,3.75,0,1,1,20,0,3.75,3.75,0,0,1,23.75,3.75ZM20,32.5a3.75,3.75,0,1,0,3.75,3.75A3.75,3.75,0,0,0,20,32.5ZM36.25,16.25A3.75,3.75,0,1,0,40,20,3.75,3.75,0,0,0,36.25,16.25ZM7.5,20a3.75,3.75,0,1,0-3.75,3.75A3.75,3.75,0,0,0,7.5,20Zm1.01,7.74a3.75,3.75,0,1,0,3.75,3.75A3.75,3.75,0,0,0,8.51,27.74Zm22.981,0a3.75,3.75,0,1,0,3.75,3.75A3.75,3.75,0,0,0,31.49,27.74ZM8.51,4.76a3.75,3.75,0,1,0,3.75,3.75A3.75,3.75,0,0,0,8.51,4.76Z" fill="#022840"/></svg>