<svg xmlns="http://www.w3.org/2000/svg" width="45.714" height="40" viewBox="0 0 45.714 40">
  <path id="toolbox" d="M44.878,48.306l-4.04-4.04a2.857,2.857,0,0,0-2.021-.837H34.286V36.286A4.286,4.286,0,0,0,30,32H15.714a4.286,4.286,0,0,0-4.286,4.286v7.143H6.9a2.859,2.859,0,0,0-2.021.837L.837,48.306A2.857,2.857,0,0,0,0,50.327v7.387H11.429V56.286a1.428,1.428,0,0,1,1.429-1.429h2.857a1.428,1.428,0,0,1,1.429,1.429v1.429H28.571V56.286A1.428,1.428,0,0,1,30,54.857h2.857a1.428,1.428,0,0,1,1.429,1.429v1.429H45.714V50.326A2.857,2.857,0,0,0,44.878,48.306ZM28.571,43.429H17.143V37.714H28.571ZM34.286,62a1.428,1.428,0,0,1-1.429,1.429H30A1.428,1.428,0,0,1,28.571,62V60.571H17.143V62a1.428,1.428,0,0,1-1.429,1.429H12.857A1.428,1.428,0,0,1,11.429,62V60.571H0v8.571A2.857,2.857,0,0,0,2.857,72h40a2.857,2.857,0,0,0,2.857-2.857V60.571H34.286Z" transform="translate(0 -32)" fill="#022840"/>
</svg>
