<?xml version="1.0" encoding="UTF-8"?>
<svg width="54px" height="35px" viewBox="0 0 54 35" version="1.1" xmlns="http://www.w3.org/2000/svg" xmlns:xlink="http://www.w3.org/1999/xlink">
    <!-- Generator: Sketch 56.2 (81672) - https://sketch.com -->
    <title>Group 2</title>
    <desc>Created with Sketch.</desc>
    <g id="Page-1" stroke="none" stroke-width="1" fill="none" fill-rule="evenodd">
        <g id="Group-2">
            <rect id="Rectangle-Copy" fill="#FFFFFF" x="0" y="0" width="54" height="35"></rect>
            <g id="mc_vrt_pos" transform="translate(6.000000, 0.000000)">
                <rect id="Rectangle" x="0" y="0" width="43" height="35"></rect>
                <path d="M10.4401825,30.856115 L10.4401825,29.1294964 C10.4609014,28.8357396 10.3519681,28.5474271 10.1411734,28.3381128 C9.93037877,28.1287985 9.63810752,28.0187239 9.3389235,28.0359712 C8.94464764,28.0105749 8.56755295,28.1980327 8.35481973,28.5251798 C8.16086809,28.2077868 7.8057362,28.0200735 7.42929357,28.0359712 C7.10152767,28.0196912 6.7894977,28.1751696 6.6092071,28.4446043 L6.6092071,28.1050359 L6,28.1050359 L6,30.856115 L6.61506486,30.856115 L6.61506486,29.342446 C6.58857559,29.1519684 6.64999985,28.959815 6.7825755,28.8184229 C6.91515114,28.6770308 7.10503993,28.6011584 7.30042284,28.6115108 C7.70460831,28.6115108 7.90962993,28.8705036 7.90962993,29.3366906 L7.90962993,30.8676258 L8.52469479,30.8676258 L8.52469479,29.342446 C8.49929248,29.152185 8.56109234,28.9606542 8.69342218,28.8195242 C8.82575202,28.6783943 9.01497853,28.6022051 9.21005277,28.6115108 C9.62595377,28.6115108 9.82511763,28.8705036 9.82511763,29.3366906 L9.82511763,30.8676258 L10.4401825,30.856115 Z M19.5402135,28.1050359 L18.5385364,28.1050359 L18.5385364,27.2705036 L17.9234716,27.2705036 L17.9234716,28.1050359 L17.3669843,28.1050359 L17.3669843,28.6517985 L17.9351871,28.6517985 L17.9351871,29.9179855 C17.9351871,30.5568345 18.1870708,30.9366985 18.9075753,30.9366985 C19.1767566,30.937579 19.4407217,30.8637633 19.6690842,30.7237409 L19.4933514,30.2115107 C19.3299794,30.3072545 19.1445601,30.3607201 18.9544374,30.3669064 C18.6615494,30.3669064 18.5502519,30.1827337 18.5502519,29.9064748 L18.5502519,28.6517985 L19.5460712,28.6517985 L19.5402135,28.1050359 Z M24.7360471,28.0359712 C24.4334695,28.027228 24.150266,28.1818138 23.9979692,28.4388489 L23.9979692,28.1050359 L23.3946199,28.1050359 L23.3946199,30.856115 L24.003827,30.856115 L24.003827,29.313669 C24.003827,28.8589928 24.2029909,28.6057554 24.589603,28.6057554 C24.7199043,28.6040042 24.849282,28.6274719 24.9703575,28.6748201 L25.1578058,28.0992806 C25.0186758,28.0503781 24.872095,28.0250774 24.7243315,28.0244604 L24.7360471,28.0359712 Z M16.8807902,28.323741 C16.5359512,28.1222955 16.1394759,28.0224117 15.7385269,28.0359712 C15.0297379,28.0359712 14.5669748,28.3697841 14.5669748,28.9165467 C14.5669748,29.3654676 14.9067249,29.6417266 15.5335053,29.7280575 L15.8263933,29.7683453 C16.1602856,29.8143884 16.3184452,29.9007194 16.3184452,30.056115 C16.3184452,30.2690647 16.0958503,30.389928 15.6799493,30.389928 C15.3454133,30.3994423 15.0173496,30.2980804 14.7485654,30.1021582 L14.4556773,30.5683452 C14.8105445,30.8117958 15.2355859,30.9368782 15.6682338,30.9251798 C16.4766047,30.9251798 16.9452256,30.5510791 16.9452256,30.0273381 C16.9452256,29.5035971 16.5761866,29.2906474 15.9669795,29.2043165 L15.6740915,29.1640287 C15.4104923,29.1294964 15.1996129,29.0776978 15.1996129,28.8935251 C15.1996129,28.7093525 15.3987768,28.571223 15.7326691,28.571223 C16.0412781,28.5747453 16.3438081,28.6559918 16.6113332,28.8071942 L16.8807902,28.323741 Z M33.1975821,28.0359712 C32.8950046,28.027228 32.6118011,28.1818138 32.4595043,28.4388489 L32.4595043,28.1050359 L31.856155,28.1050359 L31.856155,30.856115 L32.4653621,30.856115 L32.4653621,29.313669 C32.4653621,28.8589928 32.6645259,28.6057554 33.0511381,28.6057554 C33.1814394,28.6040042 33.3108171,28.6274719 33.4318926,28.6748201 L33.6193409,28.0992806 C33.4802109,28.0503781 33.3336301,28.0250774 33.1858666,28.0244604 L33.1975821,28.0359712 Z M25.348183,29.4748201 C25.3335321,29.8657366 25.4872184,30.2446223 25.7715186,30.5184772 C26.0558189,30.7923322 26.4444107,30.9358012 26.841912,30.913669 C27.2076936,30.9319538 27.5671713,30.8149064 27.8494468,30.5856114 L27.5565588,30.1021582 C27.3459638,30.2599456 27.089163,30.3467413 26.8243387,30.3496402 C26.3573875,30.3125189 25.9976881,29.9293552 25.9976881,29.4690647 C25.9976881,29.0087742 26.3573875,28.6256105 26.8243387,28.5884892 C27.089163,28.5913881 27.3459638,28.6781838 27.5565588,28.8359712 L27.8494468,28.352518 C27.5671713,28.123223 27.2076936,28.0061756 26.841912,28.0244604 C26.4444107,28.0023282 26.0558189,28.1457972 25.7715186,28.4196522 C25.4872184,28.6935071 25.3335321,29.0723928 25.348183,29.4633093 L25.348183,29.4748201 Z M31.0536418,29.4748201 L31.0536418,28.1050359 L30.4444347,28.1050359 L30.4444347,28.4388489 C30.2345521,28.1735108 29.907564,28.0235829 29.5657706,28.0359712 C28.7569827,28.0359712 28.1013305,28.6801658 28.1013305,29.4748201 C28.1013305,30.2694744 28.7569827,30.913669 29.5657706,30.913669 C29.907564,30.9260573 30.2345521,30.7761294 30.4444347,30.5107913 L30.4444347,30.8446042 L31.0536418,30.8446042 L31.0536418,29.4748201 Z M28.7866885,29.4748201 C28.8137791,29.0232139 29.2033047,28.6757146 29.6634167,28.6926827 C30.1235288,28.7096508 30.4854455,29.0848619 30.4780043,29.5371927 C30.4705631,29.9895235 30.0964936,30.3530465 29.6360637,30.3553956 C29.4016183,30.3583102 29.1765881,30.2648857 29.0153058,30.0976789 C28.8540235,29.9304722 28.7711477,29.7046804 28.7866885,29.4748201 L28.7866885,29.4748201 Z M21.435199,28.0359712 C20.626411,28.0470964 19.979938,28.7003097 19.991261,29.494964 C20.0025841,30.2896183 20.6674154,30.9247941 21.4762033,30.913669 C21.8975929,30.9349205 22.3119902,30.8015949 22.6389688,30.5395683 L22.3460808,30.0964028 C22.1148052,30.2786413 21.8282846,30.3799052 21.531852,30.3841726 C21.1131295,30.4195539 20.7418101,30.1210562 20.6941923,29.7107913 L22.7736973,29.7107913 C22.7736973,29.6359712 22.7736973,29.561151 22.7736973,29.4805755 C22.7736973,28.6172662 22.2289256,28.0417266 21.4439856,28.0417266 L21.435199,28.0359712 Z M21.435199,28.571223 C21.6193093,28.5673664 21.7974341,28.6355481 21.9303669,28.7607608 C22.0632997,28.8859735 22.1401448,29.0579542 22.143988,29.2388489 L20.6795479,29.2388489 C20.7016107,28.8546254 21.0320322,28.558097 21.4234835,28.571223 L21.435199,28.571223 Z M36.6975941,29.4805755 L36.6975941,27 L36.111818,27 L36.111818,28.4388489 C35.9019354,28.1735108 35.5749473,28.0235829 35.2331539,28.0359712 C34.424366,28.0359712 33.7687138,28.6801658 33.7687138,29.4748201 C33.7687138,30.2694744 34.424366,30.913669 35.2331539,30.913669 C35.5749473,30.9260573 35.9019354,30.7761294 36.111818,30.5107913 L36.111818,30.8446042 L36.6975941,30.8446042 L36.6975941,29.4805755 Z M34.4452851,29.4805755 C34.4723758,29.0289693 34.8619013,28.68147 35.3220134,28.6984381 C35.7821254,28.7154062 36.1440422,29.0906173 36.136601,29.5429481 C36.1291598,29.9952789 35.7550902,30.3588019 35.2946604,30.361151 C35.060215,30.3640656 34.8351848,30.2706411 34.6739025,30.1034343 C34.5126201,29.9362276 34.4297444,29.7104358 34.4452851,29.4805755 L34.4452851,29.4805755 Z M13.875759,29.4805755 L13.875759,28.1050359 L13.2665519,28.1050359 L13.2665519,28.4388489 C13.0566694,28.1735108 12.7296812,28.0235829 12.3878879,28.0359712 C11.5790999,28.0359712 10.9234477,28.6801658 10.9234477,29.4748201 C10.9234477,30.2694744 11.5790999,30.913669 12.3878879,30.913669 C12.7296812,30.9260573 13.0566694,30.7761294 13.2665519,30.5107913 L13.2665519,30.8446042 L13.875759,30.8446042 L13.875759,29.4805755 Z M11.6088057,29.4805755 C11.6358964,29.0289693 12.0254219,28.68147 12.485534,28.6984381 C12.945646,28.7154062 13.3075628,29.0906173 13.3001216,29.5429481 C13.2926804,29.9952789 12.9186108,30.3588019 12.458181,30.361151 C12.2227252,30.3656927 11.9961284,30.2729804 11.8335471,30.1055814 C11.6709658,29.9381824 11.5873119,29.7114506 11.6029479,29.4805755 L11.6088057,29.4805755 Z" id="Shape" fill="#231F20" fill-rule="nonzero"></path>
                <g id="_Group_" transform="translate(5.000000, 4.000000)" fill-rule="nonzero">
                    <rect id="Rectangle" fill="#FF5F00" x="12.3940171" y="2.25821918" width="9.15384615" height="16.2850685"></rect>
                    <path d="M12.9752137,10.4021918 C12.9717912,7.22385394 14.445305,4.22058122 16.9709402,2.25821918 C12.6816485,-1.07875223 6.52205358,-0.592693485 2.82095323,3.37480638 C-0.880147111,7.34230625 -0.880147111,13.4592006 2.82095323,17.4267005 C6.52205358,21.3942003 12.6816485,21.8802591 16.9709402,18.5432877 C14.4461085,16.5815486 12.9726847,13.5795201 12.9752137,10.4021918 L12.9752137,10.4021918 Z" id="_Path_" fill="#EB001B"></path>
                    <path d="M33.8982906,10.4021918 C33.8982906,14.3672738 31.6111138,17.9842419 28.0083733,19.7169558 C24.4056329,21.4496697 20.119744,20.9939286 16.9709402,18.5432877 C19.4946702,16.5798831 20.9682049,13.5782538 20.9682049,10.4007534 C20.9682049,7.22325306 19.4946702,4.22162372 16.9709402,2.25821918 C20.119744,-0.192421799 24.4056329,-0.64816282 28.0083733,1.08455107 C31.6111138,2.81726497 33.8982906,6.43423304 33.8982906,10.3993151 L33.8982906,10.4021918 Z" id="Path" fill="#F79E1B"></path>
                </g>
            </g>
        </g>
    </g>
</svg>