<svg xmlns="http://www.w3.org/2000/svg" width="51.428" height="40" viewBox="0 0 51.428 40">
  <path id="credit-card" d="M47.134,32H4.295A4.289,4.289,0,0,0,0,36.286V67.714A4.289,4.289,0,0,0,4.295,72H47.134a4.289,4.289,0,0,0,4.295-4.286V36.286A4.289,4.289,0,0,0,47.134,32ZM4.83,36.286H46.6a.537.537,0,0,1,.536.536v3.75H4.295v-3.75A.537.537,0,0,1,4.83,36.286ZM46.6,67.714H4.83a.537.537,0,0,1-.536-.536V52H47.134V67.179A.537.537,0,0,1,46.6,67.714ZM17.143,58.786v3.571a1.075,1.075,0,0,1-1.071,1.071H9.643a1.075,1.075,0,0,1-1.071-1.071V58.786a1.075,1.075,0,0,1,1.071-1.071h6.429A1.075,1.075,0,0,1,17.143,58.786Zm17.143,0v3.571a1.075,1.075,0,0,1-1.071,1.071H21.071A1.075,1.075,0,0,1,20,62.357V58.786a1.075,1.075,0,0,1,1.071-1.071H33.214A1.075,1.075,0,0,1,34.286,58.786Z" transform="translate(0 -32)" fill="#022840"/>
</svg>
