<svg xmlns="http://www.w3.org/2000/svg" width="180" height="140" viewBox="0 0 180 140">
  <path id="credit-card" d="M164.969,32H15.031A15.011,15.011,0,0,0,0,47V157a15.011,15.011,0,0,0,15.031,15H164.969A15.011,15.011,0,0,0,180,157V47a15.011,15.011,0,0,0-15.031-15ZM16.906,47H163.094a1.881,1.881,0,0,1,1.875,1.875V62H15.031V48.875A1.881,1.881,0,0,1,16.906,47ZM163.094,157H16.906a1.881,1.881,0,0,1-1.875-1.875V102H164.969v53.125A1.881,1.881,0,0,1,163.094,157ZM60,125.75v12.5A3.761,3.761,0,0,1,56.25,142H33.75A3.761,3.761,0,0,1,30,138.25v-12.5A3.761,3.761,0,0,1,33.75,122h22.5A3.761,3.761,0,0,1,60,125.75Zm60,0v12.5a3.761,3.761,0,0,1-3.75,3.75H73.75A3.761,3.761,0,0,1,70,138.25v-12.5A3.761,3.761,0,0,1,73.75,122h42.5A3.761,3.761,0,0,1,120,125.75Z" transform="translate(0 -32)" fill="#022840"/>
</svg>
