<svg xmlns="http://www.w3.org/2000/svg" width="45" height="45" viewBox="0 0 45 45">
  <path id="times-circle" d="M30.5,8A22.5,22.5,0,1,0,53,30.5,22.5,22.5,0,0,0,30.5,8Zm0,40.645A18.145,18.145,0,1,1,48.645,30.5,18.14,18.14,0,0,1,30.5,48.645Zm9.236-23.788L34.093,30.5l5.643,5.643a1.09,1.09,0,0,1,0,1.542l-2.05,2.05a1.09,1.09,0,0,1-1.542,0L30.5,34.093l-5.643,5.643a1.09,1.09,0,0,1-1.542,0l-2.05-2.05a1.09,1.09,0,0,1,0-1.542L26.907,30.5l-5.643-5.643a1.09,1.09,0,0,1,0-1.542l2.05-2.05a1.09,1.09,0,0,1,1.542,0L30.5,26.907l5.643-5.643a1.09,1.09,0,0,1,1.542,0l2.05,2.05a1.09,1.09,0,0,1,0,1.542Z" transform="translate(-8 -8)" fill="#022840"/>
</svg>
