<svg xmlns="http://www.w3.org/2000/svg" width="53" height="40" viewBox="0 0 53 40">
  <g id="Group_8" data-name="Group 8" transform="translate(-546.709 -300)">
    <path id="tools-solid" d="M26.784,21.188l-6.27-6.27a3.976,3.976,0,0,0-4.573-.744L10.233,8.465V5.14L3.38,0-.047,3.427l5.14,6.854H8.418l5.708,5.708a3.984,3.984,0,0,0,.744,4.573l6.27,6.27a1.991,1.991,0,0,0,2.822,0l2.822-2.822a2,2,0,0,0,0-2.822Zm-9.07-9.14a5.634,5.634,0,0,1,4.011,1.66l1.039,1.039a7.579,7.579,0,0,0,2.345-1.58,7.7,7.7,0,0,0,2.029-7.32.641.641,0,0,0-1.076-.294L22.077,9.536l-3.636-.605L17.837,5.3,21.82,1.312A.646.646,0,0,0,21.515.23,7.713,7.713,0,0,0,14.2,2.26a7.588,7.588,0,0,0-2.206,5.547l4.4,4.4a5.833,5.833,0,0,1,1.323-.155ZM12.15,16.438,9.114,13.4.954,21.568A3.427,3.427,0,0,0,5.8,26.414L12.418,19.8a5.75,5.75,0,0,1-.268-3.357ZM3.38,25.273a1.285,1.285,0,1,1,1.285-1.285A1.289,1.289,0,0,1,3.38,25.273Z" transform="translate(560.05 305)" fill="#022840"/>
    <g id="Rectangle_48" data-name="Rectangle 48" transform="translate(546.709 300)" fill="none" stroke="#022840" stroke-width="3">
      <rect width="53" height="40" stroke="none"/>
      <rect x="1.5" y="1.5" width="50" height="37" fill="none"/>
    </g>
  </g>
</svg>
