<?xml version="1.0" encoding="UTF-8"?>
<svg width="106px" height="28px" viewBox="0 0 106 28" version="1.1" xmlns="http://www.w3.org/2000/svg" xmlns:xlink="http://www.w3.org/1999/xlink">
    <!-- Generator: Sketch 56.2 (81672) - https://sketch.com -->
    <title>vipps-rgb-orange-pos</title>
    <desc>Created with Sketch.</desc>
    <g id="Page-1" stroke="none" stroke-width="1" fill="none" fill-rule="evenodd">
        <g id="vipps-rgb-orange-pos" fill="#FF5B24" fill-rule="nonzero">
            <polygon id="Path" points="5.3 0.883333333 9.805 14.045 14.2216667 0.883333333 19.4333333 0.883333333 11.66 20.405 7.77333333 20.405 0 0.883333333"></polygon>
            <path d="M31.1816667,17.3133333 C34.45,17.3133333 36.305,15.7233333 38.0716667,13.4266667 C39.0433333,12.19 40.28,11.925 41.1633333,12.6316667 C42.0466667,13.3383333 42.135,14.6633333 41.1633333,15.9 C38.6016667,19.2566667 35.3333333,21.2883333 31.1816667,21.2883333 C26.6766667,21.2883333 22.7016667,18.815 19.9633333,14.4866667 C19.1683333,13.3383333 19.345,12.1016667 20.2283333,11.4833333 C21.1116667,10.865 22.4366667,11.13 23.2316667,12.3666667 C25.175,15.2816667 27.825,17.3133333 31.1816667,17.3133333 Z M37.2766667,6.44833333 C37.2766667,8.03833333 36.04,9.09833333 34.6266667,9.09833333 C33.2133333,9.09833333 31.9766667,8.03833333 31.9766667,6.44833333 C31.9766667,4.85833333 33.2133333,3.79833333 34.6266667,3.79833333 C36.04,3.79833333 37.2766667,4.94666667 37.2766667,6.44833333 Z" id="Shape"></path>
            <path d="M49.7316667,0.883333333 L49.7316667,3.53333333 C51.0566667,1.67833333 53.0883333,0.353333333 56.0916667,0.353333333 C59.89,0.353333333 64.3066667,3.53333333 64.3066667,10.335 C64.3066667,17.49 60.0666667,20.935 55.65,20.935 C53.3533333,20.935 51.2333333,20.0516667 49.6433333,17.8433333 L49.6433333,27.2066667 L44.8733333,27.2066667 L44.8733333,0.883333333 L49.7316667,0.883333333 Z M49.7316667,10.6 C49.7316667,14.575 52.0283333,16.695 54.59,16.695 C57.0633333,16.695 59.5366667,14.7516667 59.5366667,10.6 C59.5366667,6.53666667 57.0633333,4.59333333 54.59,4.59333333 C52.1166667,4.59333333 49.7316667,6.44833333 49.7316667,10.6 Z" id="Shape"></path>
            <path d="M72.6983333,0.883333333 L72.6983333,3.53333333 C74.0233333,1.67833333 76.055,0.353333333 79.0583333,0.353333333 C82.8566667,0.353333333 87.2733333,3.53333333 87.2733333,10.335 C87.2733333,17.49 83.0333333,20.935 78.6166667,20.935 C76.32,20.935 74.2,20.0516667 72.61,17.8433333 L72.61,27.2066667 L67.84,27.2066667 L67.84,0.883333333 L72.6983333,0.883333333 Z M72.6983333,10.6 C72.6983333,14.575 74.995,16.695 77.5566667,16.695 C80.03,16.695 82.5033333,14.7516667 82.5033333,10.6 C82.5033333,6.53666667 80.03,4.59333333 77.5566667,4.59333333 C74.995,4.59333333 72.6983333,6.44833333 72.6983333,10.6 Z" id="Shape"></path>
            <path d="M97.4316667,0.353333333 C101.406667,0.353333333 104.233333,2.20833333 105.47,6.80166667 L101.141667,7.50833333 C101.053333,5.21166667 99.64,4.41666667 97.52,4.41666667 C95.93,4.41666667 94.6933333,5.12333333 94.6933333,6.27166667 C94.6933333,7.155 95.3116667,8.03833333 97.1666667,8.39166667 L100.435,9.01 C103.615,9.62833333 105.381667,11.7483333 105.381667,14.575 C105.381667,18.815 101.583333,20.935 97.9616667,20.935 C94.1633333,20.935 89.9233333,18.9916667 89.305,14.2216667 L93.6333333,13.515 C93.8983333,15.9883333 95.4,16.8716667 97.8733333,16.8716667 C99.7283333,16.8716667 100.965,16.165 100.965,15.0166667 C100.965,13.9566667 100.346667,13.1616667 98.315,12.8083333 L95.3116667,12.2783333 C92.1316667,11.66 90.1883333,9.45166667 90.1883333,6.625 C90.2766667,2.20833333 94.2516667,0.353333333 97.4316667,0.353333333 Z" id="Path"></path>
        </g>
    </g>
</svg>